<?xml version="1.0" standalone="no"?><!DOCTYPE svg PUBLIC "-//W3C//DTD SVG 1.1//EN" "http://www.w3.org/Graphics/SVG/1.1/DTD/svg11.dtd"><svg t="1686491848183" class="icon" viewBox="0 0 1024 1024" version="1.1" xmlns="http://www.w3.org/2000/svg" p-id="3372" xmlns:xlink="http://www.w3.org/1999/xlink" width="200" height="200"><path d="M416 832c-51.2 0-96-44.8-96-96v-320C320 364.8 364.8 320 416 320h320c51.2 0 96 44.8 96 96 0 19.2 12.8 32 32 32s32-12.8 32-32c0-76.8-57.6-140.8-128-160-12.8-76.8-76.8-128-160-128h-320C198.4 128 128 198.4 128 288v320c0 76.8 57.6 140.8 128 160 12.8 76.8 76.8 128 160 128 19.2 0 32-12.8 32-32s-12.8-32-32-32zM256 416v281.6c-38.4-12.8-64-51.2-64-89.6v-320C192 236.8 236.8 192 288 192h320c44.8 0 76.8 25.6 89.6 64H416C326.4 256 256 326.4 256 416z" p-id="3373"></path><path d="M812.8 774.4c32-38.4 44.8-83.2 32-134.4-19.2-89.6-102.4-140.8-185.6-128-83.2 19.2-140.8 108.8-121.6 192s102.4 140.8 185.6 128c12.8 0 25.6-6.4 38.4-12.8l76.8 76.8c6.4 6.4 19.2 12.8 32 6.4 6.4 0 12.8-6.4 19.2-6.4 12.8-12.8 12.8-32 0-44.8l-76.8-76.8z m-102.4-6.4c-51.2 12.8-102.4-25.6-115.2-76.8-6.4-51.2 25.6-102.4 76.8-115.2 51.2-12.8 102.4 25.6 115.2 76.8 12.8 51.2-25.6 102.4-76.8 115.2z" p-id="3374"></path></svg>